<?xml version="1.0" encoding="utf-8"?>
<!-- Generator: Adobe Illustrator 21.0.0, SVG Export Plug-In . SVG Version: 6.00 Build 0)  -->
<svg version="1.1" id="图层_1" xmlns="http://www.w3.org/2000/svg" xmlns:xlink="http://www.w3.org/1999/xlink" x="0px" y="0px"
	 viewBox="0 0 300 200" style="enable-background:new 0 0 300 200;" xml:space="preserve">
<path d="M250,12.5c21.2,0,37.5,16.2,37.5,37.5v100c0,21.2-16.2,37.5-37.5,37.5H50c-21.2,0-37.5-16.2-37.5-37.5V50
	c0-21.2,16.2-37.5,37.5-37.5H250 M250,0H50C22.5,0,0,22.5,0,50v100c0,27.5,22.5,50,50,50h200c27.5,0,50-22.5,50-50V50
	C300,22.5,277.5,0,250,0z"/>
<g>
	<path d="M73.8,58.9v-7.8h8.9v7.8h9.8v8.2h-9.8v8h4.1c5.1-6.4,9.5-13.3,13.2-20.9l7.3,3.8c-3.2,6.2-6.7,11.9-10.2,17.1h5.5v8.5H90.6
		c-2.2,2.5-4.2,4.8-6.4,7h15.3v6.7c-3.2,3.8-7.1,7.7-11.5,11.5v3.1c6.3-1,11.8-2.1,16.7-3.4v8.6c-4.3,1.2-9.9,2.3-16.7,3.2v9.6
		c0,6.6-3.3,9.9-9.9,9.9h-9l-2.4-8.3c3.3,0.4,6,0.7,7.9,0.7c2.8,0,4.3-1.6,4.3-4.7v-6c-6.2,0.8-13,1.5-20.5,2.2l-1.3-8.9
		c7.9-0.4,15.2-1,21.8-1.7v-6.1c3.3-2.4,6.5-5.1,9.5-8.1H75.1c-4.5,3.5-9.1,6.7-14,9.4l-5.8-6.6c2.3-1.3,4.4-2.6,6.6-3.9v-7.2h9.8
		c2.7-2.4,5.3-4.6,7.7-7h-22v-8.5h16.5v-8H61.9v-8.2H73.8z M106.6,95.8l-5.5-6.9c5.9-9.6,9.9-22.6,12.1-38.7l9.1,1.6
		c-0.8,4.5-1.6,8.8-2.5,12.8h24.2v8.9h-5.4c-0.6,15.2-3.7,28.3-9.4,39.2c4.6,7.7,10.5,14.3,17.7,19.7l-4.7,8.2
		c-7.3-5.4-13.2-12-18-19.7c-5.6,7.8-12.8,14.4-21.4,19.7l-5.3-8.5c9.2-5.1,16.5-11.9,21.8-20.3c-3.3-7.4-5.9-15.5-7.7-24.3
		C110.1,90.6,108.4,93.3,106.6,95.8z M117.4,73.5c-0.1,0.1-0.1,0.2-0.1,0.3c1.1,10.8,3.3,20.3,6.9,28.7c3.4-8.4,5.4-18.1,6-29H117.4
		z"/>
	<path d="M168.9,76.5V64.6c-3.7,0.5-7.7,1-11.6,1.4l-1.9-8.7c12.2-1,23-3,32.5-6l3.2,8.8c-4.2,1.2-8.6,2.2-13.3,3v13.3h11.3v8.9
		h-11.3v4.1c4.4,4.1,8.8,8.7,13.3,13.6L186,111c-3.1-5.1-5.8-9.3-8.1-12.7v42.2h-8.9V99.6c-3.1,8.2-7.1,15.9-11.9,22.8l-4.1-10.4
		c6.9-7.8,11.8-16.7,14.9-26.6h-12.5v-8.9H168.9z M241.4,90.9v8.4h-20.6v10.2h17.6v8.3h-17.6v10.9h23v8.8h-55.4v-8.8h23.1v-10.9
		h-17.1v-8.3h17.1V99.3h-19.3v-8.4H241.4z M238.2,53.6v29.7h-43.1V53.6H238.2z M229.2,61.8h-24.9V75h24.9V61.8z"/>
</g>
</svg>
