<?xml version="1.0" encoding="UTF-8"?>
<svg width="102px" height="68px" viewBox="0 0 102 68" version="1.1" xmlns="http://www.w3.org/2000/svg" xmlns:xlink="http://www.w3.org/1999/xlink">
    <!-- Generator: Sketch 60.1 (88133) - https://sketch.com -->
    <title>形状</title>
    <desc>Created with Sketch.</desc>
    <g id="5.5.N" stroke="none" stroke-width="1" fill="none" fill-rule="evenodd">
        <path d="M84,0 C93.9411255,0 102,8.0588745 102,18 L102,50 C102,59.9411255 93.9411255,68 84,68 L18,68 C8.0588745,68 0,59.9411255 0,50 L0,18 C0,8.0588745 8.0588745,0 18,0 L84,0 Z M84,4 L18,4 C10.3724998,4 4.16967311,10.0997524 4.00342205,17.687355 L4,18 L4,50 C4,57.6275002 10.0997524,63.8303269 17.687355,63.996578 L18,64 L84,64 C91.6275002,64 97.8303269,57.9002476 97.996578,50.312645 L98,50 L98,18 C98,10.2680135 91.7319865,4 84,4 Z M42.7053125,18.222 L42.7053125,24.818 L50.0493125,24.818 L50.0390035,29.3080816 C49.9979656,37.7678367 49.8355982,43.1051429 49.5733125,45.32 C49.1993125,47.904 47.4653125,49.196 44.3713125,49.196 L44.0912652,49.1914192 C43.5762356,49.1765626 42.8197859,49.1276595 41.8219161,49.0756614 L41.5153125,49.06 L40.7673125,46.204 L41.6534375,46.2735937 C42.5076875,46.33575 43.2663125,46.374 43.9293125,46.374 C45.4253125,46.374 46.2753125,45.558 46.5473125,43.926 L46.5917874,43.5002944 C46.7237246,41.9907401 46.8084521,38.6597022 46.8691056,33.5187488 L46.9213125,27.946 L42.7053125,27.946 L42.7053125,28.252 C42.6053525,37.84816 40.3502549,44.8973392 35.9080192,49.4315381 L35.6333125,49.706 L33.2193125,47.564 C37.2457806,43.6373617 39.3507023,37.398354 39.5022019,28.8151013 L39.5093125,28.252 L39.5093125,27.946 L35.1913125,27.946 L35.1913125,24.818 L39.5093125,24.818 L39.5093125,18.222 L42.7053125,18.222 Z M64.8393125,37.806 L64.8393125,44.266 C64.8393125,45.13 65.2308419,45.6024706 66.0705928,45.6550657 L66.2333125,45.66 L73.3053125,45.66 C73.9173125,45.66 74.3253125,45.456 74.5973125,45.048 C74.921122,44.6918095 75.1524145,43.564644 75.2911901,41.6371329 L75.3113125,41.342 L78.3713125,42.328 C78.0993125,45.456 77.6233125,47.292 76.8753125,47.904 C76.2754554,48.4407143 75.3824349,48.742898 74.1962513,48.7833287 L73.9173125,48.788 L65.2133125,48.788 C62.8418125,48.788 61.650916,47.5754883 61.5788009,45.1504648 L61.5753125,44.912 L61.5753125,37.806 L64.8393125,37.806 Z M56.6113125,37.908 L59.7733125,38.622 C59.0083125,41.937 57.9743672,44.8336406 56.6714766,47.3119219 L56.4073125,47.802 L53.6193125,46.068 C54.9137411,43.7317143 55.8563737,41.2195306 56.4744328,38.531449 L56.6113125,37.908 Z M80.4793125,37.364 C81.9175125,39.6284 83.1904725,42.0305 84.2981925,44.595086 L84.6613125,45.456 L81.7033125,46.782 C80.5106971,43.8318462 79.1732297,41.2293373 77.744394,38.9209895 L77.3853125,38.35 L80.4793125,37.364 Z M34.8853125,29.408 L34.8853125,32.536 L27.2353125,32.536 L26.8184101,34.0981913 C25.770345,37.9623195 24.8553125,40.8450769 24.0733125,42.77 C26.3173125,42.294 28.5953125,41.614 30.8733125,40.764 C30.2216458,39.3756667 29.5699792,38.0581667 28.9183125,36.8115 L28.5273125,36.072 L31.2473125,34.746 C32.6691307,37.3423636 34.0347505,40.1916198 35.344172,43.2682239 L35.7353125,44.198 L32.9473125,45.626 L32.0633125,43.45 C28.7679279,44.5798462 25.24078,45.5068994 21.4551268,46.2311598 L20.5033125,46.408 L19.7213125,43.348 C20.0613125,43.28 20.2653125,43.178 20.4013125,43.076 C21.2683125,41.8236667 22.4082569,38.6303951 23.8497882,33.4675429 L24.1073125,32.536 L19.7553125,32.536 L19.7553125,29.408 L34.8853125,29.408 Z M70.2453125,36.616 C71.3030903,38.1271111 72.2265471,39.7725432 73.0395622,41.528417 L73.3393125,42.192 L70.3813125,43.518 C69.546767,41.4470909 68.6560232,39.6009752 67.7090811,38.0051976 L67.4233125,37.534 L70.2453125,36.616 Z M67.4573125,17.78 L70.6873125,18.12 C70.5739792,19.1116667 70.4134236,20.0325 70.2253218,20.9021759 L70.1093125,21.418 L82.9273125,21.418 L82.9273125,24.512 L72.5573125,24.512 C74.1485125,27.827 78.0345213,30.4632538 84.2153388,32.4207613 L84.6953125,32.57 L82.9953125,35.358 C75.6779212,32.6971304 71.1587813,29.1902779 69.4060624,24.8056119 L69.2933125,24.512 L69.1573125,24.512 C68.4773125,26.212 67.6006183,27.7153058 66.5527746,29.0474621 L66.2333125,29.442 L66.1313125,29.544 C67.3985852,30.4712727 68.8063538,31.5952397 70.3546183,32.9414455 L70.8233125,33.352 L68.5793125,35.596 C67.1513125,34.1 65.6213125,32.706 64.0233125,31.414 C61.8214077,32.9682857 58.8793669,34.2758594 55.1384491,35.3073506 L54.5713125,35.46 L53.3133125,32.468 C58.0733125,31.278 61.4733125,29.578 63.5813125,27.368 C64.2655625,26.62425 64.8717187,25.8024063 65.3770039,24.9024687 L65.5873125,24.512 L55.0133125,24.512 L55.0133125,21.418 L66.7773125,21.418 C67.0395982,20.4271429 67.2519247,19.4113061 67.392881,18.3276676 L67.4573125,17.78 Z M33.6613125,20.228 L33.6613125,23.322 L21.0133125,23.322 L21.0133125,20.228 L33.6613125,20.228 Z" id="形状" fill="#000000"></path>
    </g>
</svg>