<?xml version="1.0" encoding="utf-8"?>
<!-- Generator: Adobe Illustrator 21.0.0, SVG Export Plug-In . SVG Version: 6.00 Build 0)  -->
<svg version="1.1" id="图层_1" xmlns="http://www.w3.org/2000/svg" xmlns:xlink="http://www.w3.org/1999/xlink" x="0px" y="0px"
	 viewBox="0 0 300 200" style="enable-background:new 0 0 300 200;" xml:space="preserve">
<path d="M250,12.5c21.2,0,37.5,16.2,37.5,37.5v100c0,21.2-16.2,37.5-37.5,37.5H50c-21.2,0-37.5-16.2-37.5-37.5V50
	c0-21.2,16.2-37.5,37.5-37.5H250 M250,0H50C22.5,0,0,22.5,0,50v100c0,27.5,22.5,50,50,50h200c27.5,0,50-22.5,50-50V50
	C300,22.5,277.5,0,250,0z"/>
<g>
	<path d="M58,98.6l-3.1-10c10.1-11.1,17.6-24,22.4-38.7L86,54c-2.5,7.5-5.8,14.5-9.7,21.2v65.9h-9.4V88.7
		C64.2,92.1,61.1,95.4,58,98.6z M85.2,97l-6.7-8c8.1-9.5,15.1-22.7,20.8-39.3l9.4,2.1c-1.4,4.1-2.8,8-4.3,11.8h40.4v9.1h-31.5v14
		h27.6v9h-27.6V110h27.8v8.9h-27.8v22.2h-9.4V72.5h-3.5C95.8,82,90.7,90.1,85.2,97z"/>
	<path d="M194.3,139.4h-9v-4.7h-18.1v4.7H158V95.3h36.3V139.4z M185.3,126v-21.9h-18.1V126H185.3z M226.9,53.7v34.2h-55.7V53.7
		H226.9z M217.6,62.5h-37.1v16.6h37.1V62.5z M240.1,139.4h-9.3v-4.7h-18.9v4.7h-9.1V95.3h37.4V139.4z M230.7,126v-21.9h-18.9V126
		H230.7z"/>
</g>
</svg>
