<?xml version="1.0" standalone="no"?><!DOCTYPE svg PUBLIC "-//W3C//DTD SVG 1.1//EN" "http://www.w3.org/Graphics/SVG/1.1/DTD/svg11.dtd"><svg t="1534755140466" class="icon" style="" viewBox="0 0 1333 1024" version="1.1" xmlns="http://www.w3.org/2000/svg" p-id="7711" xmlns:xlink="http://www.w3.org/1999/xlink" width="260.3515625" height="200"><defs><style type="text/css"></style></defs><path d="M1329.423764 429.40503a49.423764 49.423764 0 0 1-52.532177 38.633131 50.178664 50.178664 0 0 1-52.532177-38.633131s31.084128-164.74588-52.532177-256.222029c-92.231049-99.91327-262.660885-76.822203-262.660884-76.822203a44.405898 44.405898 0 0 1-52.532177-38.189072 48.047181 48.047181 0 0 1 26.243885-51.066782 537.311362 537.311362 0 0 1 223.272854 12.433651c167.632264 54.619254 213.148309 171.850824 223.272853 243.344319a796.108933 796.108933 0 0 1 0 166.522116zM909.166349 288.638335c94.71778 9.325239 89.122637 80.374675 78.776062 140.766695a178.467303 178.467303 0 0 1-26.243885 64.388552s133.617346-19.538595 183.840416 63.944493c44.095056 73.269731-13.09974 191.833478-13.09974 191.833477a474.832264 474.832264 0 0 1-157.596531 179.399827 808.187337 808.187337 0 0 1-288.949176 89.699913 1278.889853 1278.889853 0 0 1-315.281873-12.87771C154.088465 962.719861 39.965308 852.593235 16.030529 775.326973c-33.570859-108.35039-27.753686-222.473547 183.884822-435.621856 186.50477-187.836947 364.883261-268.655681 446.545707-166.522116 46.315351 58.171726 0 166.522116 0 166.522116a579.7634 579.7634 0 0 1 262.705291-51.066782z m-398.365308 142.98699c-217.588899 30.640069-376.961665 168.298352-356.268517 307.732871s213.636774 227.358196 431.048048 196.718127 376.917259-168.298352 356.268517-307.732871-213.636774-227.358196-431.048048-196.718127z m23.446314 460.0451c-117.498005 11.989592-221.274588-56.39549-231.843192-152.312229s76.156114-183.396357 193.65412-195.38595 221.274588 55.951431 231.798786 152.312229-76.111709 183.396357-193.609714 195.38595zM452.718127 666.088465a71.626713 71.626713 0 1 0 82.417346 71.049436 77.488291 77.488291 0 0 0-82.417346-71.049436z m116.343451-18.650477a33.348829 33.348829 0 0 0-33.926105 32.860364 33.926106 33.926106 0 0 0 67.852211 0 33.348829 33.348829 0 0 0-33.926106-32.860364z m366.348656-396.988725a46.048916 46.048916 0 0 1-40.364961-45.294016 53.953166 53.953166 0 0 1 40.364961-44.405897 210.039896 210.039896 0 0 1 183.884822 51.066782 202.09124 202.09124 0 0 1 39.388032 166.522116 65.232264 65.232264 0 0 1-39.388032 38.633131 53.553513 53.553513 0 0 1-52.532177-38.633131 94.673374 94.673374 0 0 0-13.321769-89.699913 120.251171 120.251171 0 0 0-118.030876-38.189072z" fill="#B1B5C1" p-id="7712"></path></svg>